#define marque_width 10
#define marque_height 10
static unsigned char marque_bits[] = {
   0x01, 0x02, 0x02, 0x01, 0xb4, 0x00, 0x78, 0x00, 0xfc, 0x00, 0xfc, 0x00,
   0x78, 0x00, 0xb4, 0x00, 0x02, 0x01, 0x01, 0x02 };
